# xmcd
#
# Track frame offsets:
#	150
#	37956
#	64661
#	99542
#	140498
#	166670
#
# Disc length: 2519 seconds
#
# Revision: 1
# Processed by: cddbd v1.5.2PL0 Copyright (c) Steve Scherf et al.
# Submitted via: audiograbber 1.83.01
#
DISCID=4509d506
DTITLE=Grateful Dead - 95-02-20 Delta Centre, Salt Lake City UT
DYEAR=1900
DGENRE=
TTITLE0=Space
TTITLE1=The Last Time
TTITLE2=Stella Blue
TTITLE3=Throwing Stones
TTITLE4=Not Fade Away
TTITLE5=Rain
EXTD=
EXTT0=
EXTT1=
EXTT2=
EXTT3=
EXTT4=
EXTT5=
PLAYORDER=
